<svg xmlns="http://www.w3.org/2000/svg" style="display: none;">

  <!-- 프로젝트 아이콘 -->
  <symbol id="icon-project" viewBox="0 0 24 24">
    <path d="M3 3h18v18H3V3zm16 16V5H5v14h14zM11 7h6v2h-6V7zm0 4h6v2h-6v-2zm0 4h6v2h-6v-2zM7 7h2v2H7V7zm0 4h2v2H7v-2zm0 4h2v2H7v-2z"/>
  </symbol>

  <!-- 알고리즘 아이콘 -->
  <symbol id="icon-algorithm" viewBox="0 0 24 24">
    <path d="M20 6h-3V4c0-1.1-.9-2-2-2H9c-1.1 0-2 .9-2 2v2H4c-1.1 0-2 .9-2 2v10c0 1.1.9 2 2 2h16c1.1 0 2-.9 2-2V8c0-1.1-.9-2-2-2zM9 4h6v2H9V4zm11 14H4V8h16v10z"/>
    <path d="M12 9v8M9 12h6"/>
  </symbol>

  <!-- 블로그 아이콘 -->
  <symbol id="icon-blog" viewBox="0 0 24 24">
    <path d="M19 5v14H5V5h14m0-2H5c-1.1 0-2 .9-2 2v14c0 1.1.9 2 2 2h14c1.1 0-2-.9 2-2V5c0-1.1-.9-2-2-2z"/>
    <path d="M7 7h10v2H7zm0 4h10v2H7zm0 4h7v2H7z"/>
  </symbol>

  <!-- 수업 아이콘 -->
  <symbol id="icon-class" viewBox="0 0 24 24">
    <path d="M12 3L1 9l4 2.18v6L12 21l7-3.82v-6l2-1.09V17h2V9L12 3zm6.82 6L12 12.72 5.18 9 12 5.28 18.82 9zM17 15.99l-5 2.73-5-2.73v-3.72L12 15l5-2.73v3.72z"/>
  </symbol>

  <!-- 이력서 아이콘 -->
  <symbol id="icon-resume" viewBox="0 0 24 24">
    <path d="M14 2H6c-1.1 0-2 .9-2 2v16c0 1.1.9 2 2 2h12c1.1 0 2-.9 2-2V8l-6-6zm4 18H6V4h7v5h5v11z"/>
    <path d="M12 14c-1.66 0-3-1.34-3-3s1.34-3 3-3 3 1.34 3 3-1.34 3-3 3zm-1 4h2v-2h-2z"/>
  </symbol>

  <!-- 자기소개서 아이콘 -->
  <symbol id="icon-self-intro" viewBox="0 0 24 24">
    <path d="M19 3h-4.18C14.4 1.84 13.3 1 12 1c-1.3 0-2.4.84-2.82 2H5c-1.1 0-2 .9-2 2v14c0 1.1.9 2 2 2h14c1.1 0 2-.9 2-2V5c0-1.1-.9-2-2-2zm-7 0c.55 0 1 .45 1 1s-.45 1-1 1-1-.45-1-1 .45-1 1-1zm2 14H7v-2h7v2zm3-4H7v-2h10v2zm0-4H7V7h10v2z"/>
  </symbol>

  <!-- 채용정보 아이콘 -->
  <symbol id="icon-job" viewBox="0 0 24 24">
    <path d="M20 6h-4V4c0-1.11-.89-2-2-2h-4c-1.11 0-2 .89-2 2v2H4c-1.11 0-1.99.89-1.99 2L2 19c0 1.11.89 2 2 2h16c1.11 0 2-.89 2-2V8c0-1.11-.89-2-2-2zm-6 0h-4V4h4v2z"/>
  </symbol>

  <!-- 홈 아이콘 -->
  <symbol id="icon-home" viewBox="0 0 24 24">
    <path d="M10 20v-6h4v6h5v-8h3L12 3 2 12h3v8z"/>
  </symbol>

</svg>